<?xml version="1.0" encoding="UTF-8" standalone="no"?>
<!DOCTYPE svg PUBLIC "-//W3C//DTD SVG 1.1//EN" "http://www.w3.org/Graphics/SVG/1.1/DTD/svg11.dtd">
<!-- Created with Vectornator (http://vectornator.io/) -->
<svg height="100%" stroke-miterlimit="10" style="fill-rule:nonzero;clip-rule:evenodd;stroke-linecap:round;stroke-linejoin:round;" version="1.1" viewBox="0 0 420 420" width="100%" xml:space="preserve" xmlns="http://www.w3.org/2000/svg" xmlns:vectornator="http://vectornator.io" xmlns:xlink="http://www.w3.org/1999/xlink">
<defs/>
<g id="Untitled" vectornator:layerName="Untitled">
<path d="M0 0L420 0L420 0L420 420L420 420L0 420L0 420L0 0L0 0Z" fill="#f5f5f5" fill-rule="nonzero" opacity="1" stroke="none"/>
<g opacity="1">
<clipPath id="ClipPath">
<path d="M0 0L420 0L420 0L420 420L420 420L0 420L0 420L0 0L0 0Z"/>
</clipPath>
<g clip-path="url(#ClipPath)">
<path d="M0 0L420 0L420 0L420 420L420 420L0 420L0 420L0 0L0 0Z" fill="#ffffff" fill-opacity="0" fill-rule="nonzero" opacity="1" stroke="none"/>
<path d="M62.9923 378.509C63.4456 378.509 63.6723 379.695 63.6723 382.069C63.6723 384.415 63.4456 385.589 62.9923 385.589L55.6723 385.589L55.6723 390.149L60.5523 390.149C61.0056 390.149 61.2323 391.189 61.2323 393.269C61.2323 395.322 61.019 396.349 60.5923 396.349L55.6723 396.349L55.6723 405.989C55.6723 406.362 55.1656 406.602 54.1523 406.709C53.1656 406.842 52.339 406.909 51.6723 406.909L49.7923 406.829C48.4856 406.669 47.8323 406.402 47.8323 406.029L47.8323 379.549C47.8323 379.122 47.9123 378.842 48.0723 378.709C48.259 378.575 48.5256 378.509 48.8723 378.509L62.9923 378.509ZM78.8439 406.469C78.8439 406.655 77.6305 406.749 75.2039 406.749C72.7772 406.695 71.5639 406.589 71.5639 406.429L71.5639 393.149L70.4839 393.149C70.0572 393.149 69.7105 392.895 69.4439 392.389C69.2039 391.855 69.0839 391.202 69.0839 390.429C69.0839 387.549 69.9372 386.109 71.6439 386.109C72.8439 386.109 73.8439 386.482 74.6439 387.229C75.4439 387.949 75.8439 388.775 75.8439 389.709C76.4039 388.615 77.1505 387.749 78.0839 387.109C79.0439 386.442 80.0172 386.109 81.0039 386.109C82.5505 386.109 83.4839 386.509 83.8039 387.309C83.8839 387.522 83.9239 387.842 83.9239 388.269C83.9239 388.669 83.7905 389.402 83.5239 390.469C83.2839 391.535 83.0305 392.309 82.7639 392.789C82.4972 393.269 82.3372 393.509 82.2839 393.509C82.2305 393.509 81.9772 393.415 81.5239 393.229C81.0972 393.015 80.7105 392.909 80.3639 392.909C79.3505 392.909 78.8439 393.709 78.8439 395.309L78.8439 406.469ZM105.463 405.429C103.783 406.415 101.623 406.909 98.9832 406.909C96.3432 406.909 94.1166 406.015 92.3032 404.229C90.4899 402.415 89.5832 399.922 89.5832 396.749C89.5832 393.549 90.4499 390.975 92.1832 389.029C93.9432 387.082 96.1566 386.109 98.8232 386.109C101.49 386.109 103.543 386.789 104.983 388.149C106.45 389.509 107.183 391.162 107.183 393.109C107.183 397.429 104.703 399.589 99.7432 399.589L96.9832 399.589C96.9832 400.389 97.1966 400.949 97.6232 401.269C98.0766 401.562 98.7299 401.709 99.5832 401.709C101.45 401.709 103.223 401.282 104.903 400.429C104.93 400.402 105.05 400.589 105.263 400.989C105.903 402.135 106.223 403.109 106.223 403.909C106.223 404.682 105.97 405.189 105.463 405.429ZM100.463 393.869C100.463 392.749 99.9166 392.189 98.8232 392.189C98.3166 392.189 97.8766 392.349 97.5032 392.669C97.1566 392.962 96.9832 393.402 96.9832 393.989L96.9832 395.229L99.1432 395.229C100.023 395.229 100.463 394.775 100.463 393.869ZM129.316 405.429C127.636 406.415 125.476 406.909 122.836 406.909C120.196 406.909 117.97 406.015 116.156 404.229C114.343 402.415 113.436 399.922 113.436 396.749C113.436 393.549 114.303 390.975 116.036 389.029C117.796 387.082 120.01 386.109 122.676 386.109C125.343 386.109 127.396 386.789 128.836 388.149C130.303 389.509 131.036 391.162 131.036 393.109C131.036 397.429 128.556 399.589 123.596 399.589L120.836 399.589C120.836 400.389 121.05 400.949 121.476 401.269C121.93 401.562 122.583 401.709 123.436 401.709C125.303 401.709 127.076 401.282 128.756 400.429C128.783 400.402 128.903 400.589 129.116 400.989C129.756 402.135 130.076 403.109 130.076 403.909C130.076 404.682 129.823 405.189 129.316 405.429ZM124.316 393.869C124.316 392.749 123.77 392.189 122.676 392.189C122.17 392.189 121.73 392.349 121.356 392.669C121.01 392.962 120.836 393.402 120.836 393.989L120.836 395.229L122.996 395.229C123.876 395.229 124.316 394.775 124.316 393.869ZM151.229 396.749C151.735 397.149 152.602 397.695 153.829 398.389C155.082 399.082 156.269 399.429 157.389 399.429C158.535 399.429 159.109 398.989 159.109 398.109C159.109 397.709 158.949 397.362 158.629 397.069C158.309 396.749 157.722 396.389 156.869 395.989C156.015 395.589 155.375 395.282 154.949 395.069C154.522 394.829 153.949 394.455 153.229 393.949C152.535 393.415 152.002 392.869 151.629 392.309C150.562 390.789 150.029 388.855 150.029 386.509C150.029 384.162 150.895 382.189 152.629 380.589C154.389 378.962 156.682 378.149 159.509 378.149C161.429 378.149 163.202 378.362 164.829 378.789C166.455 379.189 167.295 379.722 167.349 380.389C167.349 380.469 167.349 380.549 167.349 380.629C167.349 381.562 167.055 382.749 166.469 384.189C165.882 385.602 165.469 386.389 165.229 386.549C163.522 385.669 161.989 385.229 160.629 385.229C159.295 385.229 158.629 385.709 158.629 386.669C158.629 387.255 159.122 387.775 160.109 388.229C160.322 388.335 160.629 388.482 161.029 388.669C161.429 388.855 161.882 389.082 162.389 389.349C162.922 389.589 163.482 389.909 164.069 390.309C164.682 390.682 165.335 391.189 166.029 391.829C167.442 393.162 168.149 394.922 168.149 397.109C168.149 399.962 167.362 402.295 165.789 404.109C164.215 405.922 161.789 406.855 158.509 406.909C156.909 406.909 155.455 406.775 154.149 406.509C152.869 406.242 151.749 405.722 150.789 404.949C149.829 404.175 149.349 403.242 149.349 402.149C149.349 401.055 149.549 399.975 149.949 398.909C150.349 397.815 150.775 397.095 151.229 396.749ZM184.239 413.789C184.239 413.975 183.092 414.069 180.799 414.069C178.532 414.069 177.399 413.975 177.399 413.789L177.399 393.189L176.039 393.189C175.399 393.189 174.959 392.602 174.719 391.429C174.639 391.055 174.599 390.575 174.599 389.989C174.599 389.402 174.785 388.709 175.159 387.909C175.692 386.735 176.545 386.149 177.719 386.149C178.492 386.149 179.199 386.335 179.839 386.709C180.505 387.055 180.959 387.389 181.199 387.709C181.465 388.002 181.599 388.175 181.599 388.229C183.385 386.842 185.319 386.149 187.399 386.149C189.479 386.149 191.265 386.962 192.759 388.589C194.252 390.189 194.999 392.682 194.999 396.069C194.999 399.429 194.252 402.042 192.759 403.909C191.265 405.749 189.372 406.669 187.079 406.669C186.039 406.669 185.092 406.615 184.239 406.509L184.239 413.789ZM185.879 393.149C185.425 393.149 184.985 393.295 184.559 393.589L184.559 400.669C185.012 400.722 185.372 400.749 185.639 400.749C185.932 400.749 186.159 400.749 186.319 400.749C187.412 400.642 187.959 399.242 187.959 396.549C187.959 394.282 187.265 393.149 185.879 393.149ZM209.546 406.269C209.546 406.482 208.319 406.589 205.866 406.589C203.439 406.589 202.226 406.495 202.226 406.309L202.226 386.669C202.226 386.482 203.439 386.389 205.866 386.389C208.319 386.389 209.546 386.469 209.546 386.629L209.546 406.269ZM209.546 384.269C209.546 384.455 208.319 384.549 205.866 384.549C203.439 384.549 202.226 384.469 202.226 384.309L202.226 378.549C202.226 378.282 203.439 378.149 205.866 378.149C208.319 378.149 209.546 378.229 209.546 378.389L209.546 384.269ZM226.324 406.469C226.324 406.655 225.11 406.749 222.684 406.749C220.257 406.695 219.044 406.589 219.044 406.429L219.044 393.149L217.964 393.149C217.537 393.149 217.19 392.895 216.924 392.389C216.684 391.855 216.564 391.202 216.564 390.429C216.564 387.549 217.417 386.109 219.124 386.109C220.324 386.109 221.324 386.482 222.124 387.229C222.924 387.949 223.324 388.775 223.324 389.709C223.884 388.615 224.63 387.749 225.564 387.109C226.524 386.442 227.497 386.109 228.484 386.109C230.03 386.109 230.964 386.509 231.284 387.309C231.364 387.522 231.404 387.842 231.404 388.269C231.404 388.669 231.27 389.402 231.004 390.469C230.764 391.535 230.51 392.309 230.244 392.789C229.977 393.269 229.817 393.509 229.764 393.509C229.71 393.509 229.457 393.415 229.004 393.229C228.577 393.015 228.19 392.909 227.844 392.909C226.83 392.909 226.324 393.709 226.324 395.309L226.324 406.469ZM245.143 406.269C245.143 406.482 243.916 406.589 241.463 406.589C239.036 406.589 237.823 406.495 237.823 406.309L237.823 386.669C237.823 386.482 239.036 386.389 241.463 386.389C243.916 386.389 245.143 386.469 245.143 386.629L245.143 406.269ZM245.143 384.269C245.143 384.455 243.916 384.549 241.463 384.549C239.036 384.549 237.823 384.469 237.823 384.309L237.823 378.549C237.823 378.282 239.036 378.149 241.463 378.149C243.916 378.149 245.143 378.229 245.143 378.389L245.143 384.269ZM262.36 406.269C262.36 406.589 261.24 406.749 259 406.749C256.334 406.642 255 406.469 255 406.229L255 392.069L252.96 392.069C252.427 392.069 252.16 391.149 252.16 389.309C252.16 388.829 252.2 388.242 252.28 387.549C252.387 386.855 252.587 386.509 252.88 386.509L255 386.509L255 382.989C255 382.455 256.12 382.189 258.36 382.189C260.627 382.189 261.76 382.402 261.76 382.829L261.76 385.389L261.8 386.509L265.2 386.509C265.654 386.509 265.88 387.442 265.88 389.309C265.88 391.175 265.654 392.109 265.2 392.109L262.36 392.109L262.36 406.269ZM296.466 405.869C296.466 406.402 295.146 406.669 292.506 406.669C289.866 406.669 288.546 406.402 288.546 405.869L288.546 385.789L283.746 385.789C283.293 385.789 282.973 385.175 282.786 383.949C282.706 383.362 282.666 382.762 282.666 382.149C282.666 381.535 282.706 380.935 282.786 380.349C282.973 379.122 283.293 378.509 283.746 378.509L301.146 378.509C301.599 378.509 301.919 379.122 302.106 380.349C302.186 380.935 302.226 381.535 302.226 382.149C302.226 382.762 302.186 383.362 302.106 383.949C301.919 385.175 301.599 385.789 301.146 385.789L296.466 385.789L296.466 405.869ZM309.018 404.149C307.365 402.309 306.538 399.762 306.538 396.509C306.538 393.255 307.365 390.709 309.018 388.869C310.698 387.029 312.951 386.109 315.778 386.109C318.605 386.109 320.845 387.029 322.498 388.869C324.151 390.709 324.978 393.255 324.978 396.509C324.978 399.762 324.151 402.309 322.498 404.149C320.845 405.989 318.605 406.909 315.778 406.909C312.951 406.909 310.698 405.989 309.018 404.149ZM315.778 392.789C314.285 392.789 313.538 394.015 313.538 396.469C313.538 398.922 314.285 400.149 315.778 400.149C317.298 400.149 318.058 398.922 318.058 396.469C318.058 394.015 317.298 392.789 315.778 392.789ZM332.006 386.749C332.006 386.455 333.152 386.309 335.446 386.309C337.739 386.309 338.886 386.455 338.886 386.749L338.886 398.429C338.886 399.762 339.312 400.429 340.166 400.429C340.806 400.429 341.526 400.149 342.326 399.589L342.326 386.749C342.326 386.482 343.459 386.349 345.726 386.349C347.992 386.349 349.126 386.482 349.126 386.749L349.126 399.869L350.166 399.869C351.072 399.869 351.526 400.735 351.526 402.469C351.526 403.349 351.339 404.242 350.966 405.149C350.432 406.322 349.712 406.909 348.806 406.909C347.019 406.909 345.699 406.175 344.846 404.709L344.806 404.749C343.179 406.189 341.432 406.909 339.566 406.909C336.979 406.909 335.072 406.269 333.846 404.989C332.619 403.682 332.006 401.535 332.006 398.549L332.006 386.749ZM367.124 406.469C367.124 406.655 365.91 406.749 363.484 406.749C361.057 406.695 359.844 406.589 359.844 406.429L359.844 393.149L358.764 393.149C358.337 393.149 357.99 392.895 357.724 392.389C357.484 391.855 357.364 391.202 357.364 390.429C357.364 387.549 358.217 386.109 359.924 386.109C361.124 386.109 362.124 386.482 362.924 387.229C363.724 387.949 364.124 388.775 364.124 389.709C364.684 388.615 365.43 387.749 366.364 387.109C367.324 386.442 368.297 386.109 369.284 386.109C370.83 386.109 371.764 386.509 372.084 387.309C372.164 387.522 372.204 387.842 372.204 388.269C372.204 388.669 372.07 389.402 371.804 390.469C371.564 391.535 371.31 392.309 371.044 392.789C370.777 393.269 370.617 393.509 370.564 393.509C370.51 393.509 370.257 393.415 369.804 393.229C369.377 393.015 368.99 392.909 368.644 392.909C367.63 392.909 367.124 393.709 367.124 395.309L367.124 406.469ZM379.463 399.309C381.623 400.615 383.33 401.269 384.583 401.269C385.383 401.269 385.783 400.989 385.783 400.429C385.783 400.029 385.09 399.509 383.703 398.869C380.37 397.509 378.703 395.282 378.703 392.189C378.703 390.215 379.423 388.709 380.863 387.669C382.303 386.629 384.023 386.109 386.023 386.109C388.05 386.109 389.756 386.322 391.143 386.749C392.556 387.175 393.263 387.735 393.263 388.429C393.263 389.015 392.97 389.789 392.383 390.749C391.823 391.709 391.436 392.229 391.223 392.309C390.076 391.669 388.836 391.349 387.503 391.349C386.783 391.349 386.423 391.602 386.423 392.109C386.423 392.429 386.556 392.709 386.823 392.949C387.116 393.162 387.636 393.442 388.383 393.789C389.13 394.109 389.743 394.402 390.223 394.669C390.73 394.935 391.29 395.309 391.903 395.789C393.183 396.802 393.823 398.122 393.823 399.749C393.823 401.882 393.116 403.615 391.703 404.949C390.29 406.255 388.156 406.909 385.303 406.909C383.41 406.909 381.69 406.589 380.143 405.949C378.596 405.309 377.823 404.429 377.823 403.309C377.823 402.562 377.996 401.775 378.343 400.949C378.716 400.122 379.09 399.575 379.463 399.309Z" fill="#bb2649" fill-rule="nonzero" opacity="1" stroke="none"/>
<g opacity="1">
<path d="M61.9298 178.035L35.2631 141.544L61.9298 343.649L133.509 343.649L199.474 288.1M373.509 141.544L199.474 288.1M199.474 288.1L112.456 222.947M199.474 343.649L181.93 343.649L391.053 164L373.509 343.649L345.439 343.649" fill="none" opacity="1" stroke="#bb2649" stroke-linecap="round" stroke-linejoin="round" stroke-width="12"/>
<path d="M219.825 84L150.118 197.444C149.299 198.777 150.258 200.491 151.822 200.491L259.983 200.491C261.845 200.491 262.697 202.814 261.275 204.017L196.667 258.737" fill="none" opacity="1" stroke="#bb2649" stroke-linecap="round" stroke-linejoin="round" stroke-width="12"/>
<path d="M10 84C10 73.1481 18.7972 64.3509 29.6491 64.3509C40.501 64.3509 49.2982 73.1481 49.2982 84C49.2982 94.8519 40.501 103.649 29.6491 103.649C18.7972 103.649 10 94.8519 10 84Z" fill="#bb2649" fill-rule="nonzero" opacity="1" stroke="none"/>
<path d="M370.702 84C370.702 73.1481 379.499 64.3509 390.351 64.3509C401.203 64.3509 410 73.1481 410 84C410 94.8519 401.203 103.649 390.351 103.649C379.499 103.649 370.702 94.8519 370.702 84Z" fill="#bb2649" fill-rule="nonzero" opacity="1" stroke="none"/>
<path d="M193.86 23.6491C193.86 12.7972 202.657 4 213.509 4C224.361 4 233.158 12.7972 233.158 23.6491C233.158 34.501 224.361 43.2982 213.509 43.2982C202.657 43.2982 193.86 34.501 193.86 23.6491Z" fill="#bb2649" fill-rule="nonzero" opacity="1" stroke="none"/>
</g>
</g>
</g>
</g>
</svg>
